<svg width="60" height="61" viewBox="0 0 60 61" fill="none" xmlns="http://www.w3.org/2000/svg">
<circle cx="30" cy="30" r="30" fill="black"/>
<path d="M19.2089 14.9627L20.6231 16.3769L19.916 17.084L18.5018 15.6698L19.2089 14.9627Z" fill="black"/>
<path d="M17 15H19V16H17V15Z" fill="black"/>
<path d="M18.4034 49V12.6364H30.6903C33.5313 12.6364 35.8632 13.1217 37.6861 14.0923C39.509 15.0511 40.8584 16.371 41.7344 18.0518C42.6103 19.7327 43.0483 21.6444 43.0483 23.7869C43.0483 25.9295 42.6103 27.8293 41.7344 29.4865C40.8584 31.1437 39.5149 32.4458 37.7038 33.3928C35.8928 34.3279 33.5786 34.7955 30.7614 34.7955H20.8182V30.8182H30.6193C32.5606 30.8182 34.1231 30.5341 35.3068 29.9659C36.5024 29.3977 37.3665 28.5928 37.8991 27.5511C38.4437 26.4976 38.7159 25.2429 38.7159 23.7869C38.7159 22.331 38.4437 21.0585 37.8991 19.9695C37.3546 18.8804 36.4846 18.04 35.2891 17.4482C34.0935 16.8445 32.5133 16.5426 30.5483 16.5426H22.8068V49H18.4034ZM35.5199 32.6648L44.4688 49H39.3551L30.5483 32.6648H35.5199Z" fill="white"/>
</svg>
